<?xml version="1.0" standalone="no"?>
<!DOCTYPE svg PUBLIC "-//W3C//DTD SVG 20010904//EN"
 "http://www.w3.org/TR/2001/REC-SVG-20010904/DTD/svg10.dtd">
<svg version="1.0" xmlns="http://www.w3.org/2000/svg"
 width="910.000000pt" height="910.000000pt" viewBox="0 0 910.000000 910.000000"
 preserveAspectRatio="xMidYMid meet">
<metadata>
Created by potrace 1.15, written by Peter Selinger 2001-2017
</metadata>
<g transform="translate(0.000000,910.000000) scale(0.100000,-0.100000)"
fill="#000000" stroke="none">
<path d="M1621 6629 c-169 -33 -305 -172 -342 -348 -15 -72 -7 -186 17 -236
11 -22 111 -154 223 -294 223 -278 243 -313 217 -376 -29 -68 5 -65 -811 -65
l-735 0 0 -190 0 -190 868 0 c926 0 914 0 1012 50 69 35 110 70 157 133 56 77
83 165 83 271 0 111 -15 140 -223 424 -183 249 -207 287 -207 322 0 37 29 85
63 105 30 18 57 19 540 20 l507 0 0 -662 0 -663 250 0 250 0 0 663 0 662 408
0 407 0 0 190 0 190 -1320 1 c-726 1 -1340 -2 -1364 -7z"/>
<path d="M4789 6613 c-17 -45 -539 -1668 -539 -1676 0 -4 107 -6 237 -5 l237
3 66 188 65 187 359 -2 359 -3 66 -187 66 -188 238 0 c222 0 238 1 233 18 -3
9 -135 393 -294 852 l-288 835 -397 3 -397 2 -11 -27z m408 -921 c-121 -1
-221 -1 -223 1 -2 2 47 154 108 338 l111 334 112 -335 112 -335 -220 -3z"/>
<path d="M6580 5785 l0 -855 255 0 255 0 0 321 0 321 158 -150 c345 -328 485
-454 525 -473 40 -17 73 -19 590 -19 l547 0 0 190 0 190 -370 0 c-322 0 -375
2 -403 16 -28 14 -283 263 -275 268 2 1 25 11 52 21 80 29 167 95 223 169 61
82 90 153 106 259 9 66 9 91 -6 160 -38 185 -150 322 -323 395 -91 38 -157 42
-756 42 l-578 0 0 -855z m1104 446 c69 -34 101 -87 101 -167 0 -54 -4 -67 -31
-101 -16 -21 -50 -48 -74 -60 -43 -22 -54 -23 -317 -23 l-273 0 0 183 c0 101
2 186 5 188 2 3 125 4 273 4 258 -2 270 -2 316 -24z"/>
<path d="M5120 3335 l0 -855 255 0 255 0 2 321 3 320 150 -142 c336 -319 482
-452 520 -472 l40 -22 837 -3 c903 -3 903 -3 1014 49 71 34 156 118 192 191
59 120 66 270 17 363 -13 24 -106 147 -207 272 -100 125 -190 244 -200 265
-20 40 -17 75 10 116 33 51 40 52 487 52 l415 0 0 190 0 190 -572 0 c-350 0
-590 -4 -617 -11 -124 -28 -248 -128 -301 -241 -54 -116 -60 -261 -15 -349 9
-17 111 -138 226 -270 115 -131 216 -254 224 -272 19 -45 6 -93 -36 -133 l-30
-29 -542 0 -542 0 -45 27 c-25 14 -63 48 -85 75 -22 26 -69 78 -104 115 -35
38 -57 68 -49 68 7 0 45 15 83 34 129 61 230 176 276 314 32 94 32 230 0 324
-59 175 -200 306 -378 352 -52 14 -149 16 -672 16 l-611 0 0 -855z m1109 430
c89 -53 123 -148 83 -238 -25 -56 -77 -93 -151 -107 -30 -5 -161 -10 -292 -10
l-239 0 0 191 0 190 283 -3 c261 -3 285 -4 316 -23z"/>
<path d="M270 4163 c0 -4 127 -389 282 -855 l283 -848 161 0 161 0 179 520
c98 285 180 516 182 512 2 -4 83 -236 180 -517 l177 -510 162 -3 161 -2 285
855 285 855 -248 0 -248 0 -117 -352 c-64 -194 -119 -360 -121 -367 -3 -8 -60
150 -127 352 l-122 367 -269 -2 -268 -3 -131 -364 -131 -364 -121 364 -122
364 -236 3 c-130 1 -237 -1 -237 -5z"/>
<path d="M3042 3322 c-150 -466 -272 -850 -272 -855 0 -4 102 -6 228 -5 l227
3 65 187 65 188 360 0 360 0 66 -187 66 -188 236 -3 c131 -1 237 1 237 5 0 4
-127 389 -282 855 l-283 848 -400 0 -400 0 -273 -848z m893 -83 c5 -14 -20
-15 -217 -15 -141 1 -223 5 -222 11 1 6 50 157 110 338 l109 327 108 -322 c59
-178 109 -330 112 -339z"/>
</g>
</svg>
